<?xml version="1.0" standalone="no"?>
<!DOCTYPE svg PUBLIC "-//W3C//DTD SVG 20010904//EN"
 "http://www.w3.org/TR/2001/REC-SVG-20010904/DTD/svg10.dtd">
<svg version="1.0" xmlns="http://www.w3.org/2000/svg"
 width="411.000000pt" height="280.000000pt" viewBox="0 0 411.000000 280.000000"
 preserveAspectRatio="xMidYMid meet">

<g transform="translate(0.000000,280.000000) scale(0.100000,-0.100000)"
fill="#000000" stroke="none">
<path d="M2360 2463 l-21 -28 21 -17 c44 -36 110 -12 110 39 0 42 -78 46 -110
6z"/>
<path d="M2700 2465 c-19 -23 12 -65 49 -65 43 0 56 21 30 54 -23 29 -60 34
-79 11z"/>
<path d="M1303 2402 c-12 -2 -29 -15 -39 -30 -9 -15 -28 -39 -42 -54 -22 -24
-23 -28 -9 -34 10 -3 17 -10 17 -15 0 -6 -9 -5 -21 1 -36 20 -33 2 10 -54 26
-33 48 -53 56 -50 11 5 12 -1 4 -32 -12 -40 -4 -104 12 -104 6 0 19 5 30 11
27 14 53 -9 75 -67 12 -31 22 -44 36 -44 11 0 16 -4 13 -10 -17 -28 -31 -108
-22 -128 15 -34 0 -38 -29 -9 -15 15 -32 27 -38 27 -6 0 -4 4 4 10 17 11 7 25
-13 17 -13 -5 -47 -134 -47 -180 0 -12 13 -34 30 -48 24 -22 40 -27 90 -28 33
0 60 1 60 4 0 3 -7 16 -15 29 -15 22 -14 22 15 18 16 -2 30 -8 30 -13 0 -5 10
-9 23 -10 12 0 16 -3 9 -6 -10 -4 -10 -8 0 -20 7 -9 13 -23 13 -32 0 -14 16
-16 133 -13 122 2 138 4 176 27 48 28 83 32 111 11 18 -13 18 -15 2 -58 -9
-24 -17 -51 -17 -61 0 -11 -8 -17 -22 -17 -12 0 -18 -3 -15 -7 4 -3 1 -13 -6
-21 -10 -12 -9 -16 1 -20 10 -3 10 -7 2 -17 -9 -10 -6 -16 9 -25 12 -6 21 -19
21 -28 0 -10 13 -33 28 -52 32 -37 30 -38 91 23 l28 27 -16 78 c-8 42 -20 80
-26 84 -5 4 -6 8 -1 8 5 0 2 8 -7 18 -8 9 -21 30 -26 46 -10 24 -9 27 4 22 18
-7 19 -11 -4 49 -11 28 -25 80 -31 115 -6 35 -27 95 -46 132 -34 68 -55 82
-63 42 -4 -20 -106 -180 -121 -189 -13 -8 -13 21 1 68 8 31 7 47 -7 85 -10 26
-22 53 -28 61 -9 12 -7 12 12 2 29 -15 38 -9 46 31 3 17 13 43 22 56 13 19 22
23 57 20 l42 -3 2 44 c1 26 -5 53 -14 67 -15 23 -15 24 15 24 25 0 34 7 51 40
27 52 26 68 -3 80 -26 10 -44 30 -26 30 15 0 -57 68 -81 75 -11 4 -43 1 -70
-5 -48 -12 -50 -14 -48 -44 3 -35 17 -58 30 -50 5 3 9 -4 9 -15 0 -12 4 -21 8
-21 5 0 9 -7 9 -15 0 -10 -6 -14 -15 -10 -10 4 -12 0 -8 -12 5 -14 4 -15 -4
-7 -7 7 -20 45 -31 85 -10 40 -24 78 -30 84 -5 5 -55 11 -110 12 -81 1 -104
-2 -120 -15 -10 -9 -19 -22 -19 -29 0 -18 -19 -16 -26 2 -4 8 -17 15 -29 15
-13 0 -26 4 -29 9 -7 11 -36 17 -63 13z m123 -108 c-3 -8 -15 -14 -26 -14 -21
0 -21 0 2 28 23 28 37 20 24 -14z m-16 -42 c0 -21 -37 -59 -47 -49 -3 4 -2 7
4 7 5 0 8 14 5 30 -4 25 -1 30 17 30 14 0 21 -6 21 -18z m124 -106 c3 -11 3
-23 0 -28 -9 -14 -24 -9 -24 8 0 9 -8 18 -19 21 -12 3 -17 11 -14 23 4 15 8
16 28 6 13 -6 26 -20 29 -30z m136 -6 c0 -20 -5 -30 -15 -30 -18 0 -19 14 -5
41 15 27 20 24 20 -11z m-48 -300 c19 0 28 -4 26 -12 -4 -11 -86 -13 -97 -3
-8 9 13 26 26 21 8 -3 28 -6 45 -6z m116 -222 c-3 -7 -13 -15 -23 -16 -15 -4
-16 -2 -4 12 17 19 32 21 27 4z"/>
<path d="M2565 2359 c-36 -13 -53 -44 -50 -90 2 -24 0 -61 -5 -81 -4 -22 -4
-36 1 -32 23 14 4 -14 -26 -39 -35 -29 -54 -34 -92 -22 -14 5 -23 3 -23 -3 0
-17 72 -34 81 -20 7 11 39 13 124 8 22 -2 57 0 78 5 25 5 42 4 50 -4 6 -6 20
-11 31 -10 20 0 20 1 -2 9 -12 5 -27 21 -32 35 -5 14 -13 25 -17 25 -5 0 -7
39 -5 87 2 63 0 93 -10 106 -16 22 -76 37 -103 26z m70 -209 c24 -10 23 -11
-37 -15 -27 -1 -48 1 -48 5 0 19 51 24 85 10z"/>
<path d="M1160 1925 l-64 -65 -61 0 c-33 0 -82 -7 -108 -15 -46 -14 -51 -13
-90 7 -23 11 -53 29 -66 39 -47 37 -81 15 -81 -52 0 -48 42 -207 77 -294 34
-83 95 -119 126 -75 8 11 28 21 51 23 46 5 58 21 50 69 -3 20 0 63 8 95 l13
58 6 -51 c12 -92 76 -190 110 -168 9 5 10 2 6 -10 -5 -12 1 -19 19 -26 34 -13
35 -13 67 14 25 20 31 35 47 134 23 139 19 277 -11 340 -12 23 -24 42 -28 42
-3 0 -36 -29 -71 -65z m13 -72 c-7 -2 -19 -2 -25 0 -7 3 -2 5 12 5 14 0 19 -2
13 -5z m-353 -57 c0 -3 -4 -8 -10 -11 -5 -3 -10 -1 -10 4 0 6 5 11 10 11 6 0
10 -2 10 -4z m130 -241 c0 -8 -4 -15 -10 -15 -5 0 -7 7 -4 15 4 8 8 15 10 15
2 0 4 -7 4 -15z"/>
<path d="M3112 1970 c-31 -29 -27 -80 6 -80 13 0 12 3 -3 20 -13 15 -15 24 -8
31 8 8 11 6 10 -7 -2 -15 5 -19 26 -19 26 1 27 0 11 -12 -16 -12 -16 -13 -1
-13 35 0 40 47 9 83 -19 22 -23 21 -50 -3z"/>
<path d="M3317 1952 c-10 -10 -17 -26 -17 -35 0 -8 -7 -23 -16 -32 -13 -12
-14 -19 -5 -28 15 -15 32 8 24 31 -5 12 -3 12 18 -1 31 -19 69 -7 69 23 0 54
-41 77 -73 42z m24 -59 c13 -16 12 -17 -3 -4 -17 13 -22 21 -14 21 2 0 10 -8
17 -17z"/>
<path d="M3036 1941 c-4 -5 3 -7 14 -4 23 6 26 13 6 13 -8 0 -17 -4 -20 -9z"/>
<path d="M3415 1920 c3 -5 16 -10 28 -10 18 0 19 2 7 10 -20 13 -43 13 -35 0z"/>
<path d="M3196 1877 c3 -10 9 -15 12 -12 3 3 0 11 -7 18 -10 9 -11 8 -5 -6z"/>
<path d="M3400 1876 c0 -2 7 -9 15 -16 13 -11 14 -10 9 4 -5 14 -24 23 -24 12z"/>
<path d="M3360 1846 c0 -3 9 -10 20 -16 11 -6 20 -8 20 -6 0 3 -9 10 -20 16
-11 6 -20 8 -20 6z"/>
<path d="M3010 1800 c0 -5 5 -10 10 -10 6 0 10 5 10 10 0 6 -4 10 -10 10 -5 0
-10 -4 -10 -10z"/>
<path d="M3424 1781 c10 -11 25 -17 33 -14 12 5 10 9 -8 19 -35 19 -45 17 -25
-5z"/>
<path d="M3577 1606 c-3 -7 1 -25 8 -40 13 -25 13 -26 -6 -15 -12 6 -24 7 -27
3 -4 -4 -1 -9 6 -11 20 -7 14 -25 -7 -18 -19 6 -36 -18 -25 -36 7 -12 51 -11
59 2 5 7 14 5 29 -4 18 -12 23 -12 34 -1 14 15 16 44 3 44 -5 0 -17 20 -27 45
-17 45 -37 58 -47 31z"/>
<path d="M3562 1473 c-19 -4 -20 -6 -8 -19 8 -8 22 -11 33 -7 10 3 15 3 11 -2
-4 -4 -2 -15 4 -23 10 -12 8 -13 -14 -10 -15 1 -27 0 -28 -4 -1 -31 3 -37 27
-40 37 -4 45 -38 10 -38 -16 0 -26 -7 -30 -20 -3 -13 0 -20 9 -20 8 0 14 6 15
13 0 6 5 2 11 -11 12 -24 1 -45 -25 -48 -29 -3 -57 -17 -57 -29 0 -7 -5 -15
-11 -17 -7 -2 4 -4 24 -5 26 -1 43 6 60 23 20 20 26 22 42 10 9 -7 18 -24 18
-39 0 -15 6 -32 15 -39 13 -11 14 -10 9 7 -10 30 6 50 23 30 7 -8 19 -15 28
-15 13 0 13 2 1 18 -23 27 -38 64 -43 102 -2 19 -9 49 -14 65 -6 17 -13 42
-16 58 -7 31 -40 68 -58 66 -7 -1 -23 -4 -36 -6z"/>
<path d="M1295 1408 c-10 -35 -17 -76 -16 -93 2 -16 3 -38 4 -47 1 -9 5 -14 9
-12 4 3 8 -3 8 -12 0 -16 2 -16 19 2 10 10 14 21 9 22 -5 2 -4 10 3 18 6 8 8
14 5 14 -4 0 2 14 14 30 12 17 17 30 11 30 -6 0 -11 10 -11 21 0 18 2 19 15 9
9 -7 18 -10 22 -6 3 3 1 6 -5 6 -7 0 -12 7 -12 15 0 8 -4 15 -10 15 -5 0 -12
11 -16 25 -11 43 -31 28 -49 -37z"/>
<path d="M1606 1459 c3 -6 -1 -10 -12 -9 -34 4 -44 0 -44 -17 0 -13 -3 -14
-12 -5 -15 15 -32 16 -23 2 3 -5 1 -10 -4 -10 -6 0 -11 -7 -11 -15 0 -8 -4
-15 -10 -15 -5 0 -10 -25 -10 -56 0 -34 4 -53 10 -49 15 9 12 -38 -3 -60 -18
-23 -37 -11 -37 23 0 26 -1 26 -16 -8 -9 -19 -20 -43 -25 -52 -5 -10 -6 -18
-1 -18 4 0 13 -13 19 -30 14 -37 33 -39 33 -4 l0 27 29 -30 c28 -29 29 -30 45
-12 8 10 22 16 30 13 8 -3 17 -1 21 5 11 19 25 12 25 -14 0 -35 15 -31 40 10
26 41 33 44 24 10 -5 -22 -3 -25 19 -25 14 0 29 5 32 11 4 6 14 8 23 4 9 -3
13 -3 10 0 -4 4 -3 18 2 31 9 24 -2 34 -15 14 -3 -5 -16 -10 -28 -9 -12 0 -17
3 -11 5 17 7 4 46 -12 40 -11 -4 -13 1 -10 20 7 38 14 41 47 21 34 -19 76 -22
99 -7 12 8 13 13 3 30 -7 11 -13 26 -13 34 0 24 -52 68 -76 63 -16 -3 -24 2
-28 16 -3 12 -9 16 -17 11 -8 -4 -9 -9 -3 -11 6 -2 9 -17 6 -33 -4 -26 -6 -27
-23 -17 -23 14 -25 40 -4 57 20 16 19 40 -1 40 -8 0 -22 7 -30 15 -18 17 -49
21 -38 4z m-36 -105 c0 -8 -4 -12 -10 -9 -5 3 -10 -1 -10 -9 0 -9 -7 -16 -15
-16 -15 0 -20 26 -9 54 8 20 44 3 44 -20z m160 -3 c0 -6 -4 -13 -10 -16 -5 -3
-10 1 -10 9 0 9 5 16 10 16 6 0 10 -4 10 -9z m-170 -61 c0 -5 -4 -10 -10 -10
-5 0 -10 5 -10 10 0 6 5 10 10 10 6 0 10 -4 10 -10z m54 -48 l-7 -27 -7 30
c-3 17 -1 33 5 37 14 10 18 -8 9 -40z m-37 -4 c-3 -8 -6 -5 -6 6 -1 11 2 17 5
13 3 -3 4 -12 1 -19z m113 -42 c0 -2 -7 -6 -15 -10 -8 -3 -15 -1 -15 4 0 6 7
10 15 10 8 0 15 -2 15 -4z"/>
<path d="M697 1385 c-15 -19 -27 -37 -27 -40 0 -4 -9 -18 -20 -32 -27 -34 -25
-57 5 -71 21 -10 28 -9 46 9 11 11 17 24 14 29 -3 4 -1 10 4 12 12 4 23 115
13 122 -5 3 -20 -11 -35 -29z"/>
<path d="M1031 1391 c-20 -13 -4 -31 29 -31 25 0 48 15 38 25 -9 10 -55 14
-67 6z"/>
<path d="M3547 1339 c4 -13 8 -18 11 -10 2 7 -1 18 -6 23 -8 8 -9 4 -5 -13z"/>
<path d="M2192 1254 c-12 -8 -20 -20 -16 -25 3 -5 -8 -14 -25 -20 -17 -6 -36
-20 -42 -30 -9 -18 -7 -19 21 -14 20 4 30 1 30 -8 0 -19 -60 -88 -71 -81 -5 3
4 17 21 31 31 26 32 44 2 38 -9 -2 -21 -4 -25 -4 -5 -1 -6 -5 -3 -10 3 -5 -11
-20 -32 -34 -20 -15 -42 -35 -49 -46 -11 -17 -10 -21 8 -26 11 -4 25 -16 30
-28 7 -18 8 -16 4 9 -5 28 -2 33 29 48 19 9 38 21 41 26 3 6 15 15 27 21 20
11 20 11 2 -14 -11 -14 -29 -28 -41 -32 -28 -7 -30 -22 -3 -30 18 -6 15 -13
-32 -78 -29 -40 -57 -75 -64 -79 -6 -4 -15 -28 -18 -53 -7 -41 -26 -73 -26
-43 -1 17 -32 -50 -37 -79 -4 -25 9 -30 25 -10 5 6 22 36 37 64 15 29 31 50
36 47 5 -3 25 8 45 25 35 31 62 42 48 19 -5 -8 -2 -9 9 -5 19 7 24 -17 7 -28
-5 -3 -10 -11 -10 -16 0 -6 12 3 26 18 17 18 24 22 20 10 -5 -14 -2 -16 13 -8
10 6 23 17 30 25 11 13 10 17 -4 22 -10 4 -27 2 -37 -5 -20 -12 -20 -12 -2 12
21 28 61 41 61 21 0 -7 -7 -10 -16 -6 -14 5 -14 3 -2 -11 7 -9 17 -14 22 -11
5 3 9 1 9 -4 0 -6 -7 -13 -17 -16 -14 -6 -14 -8 3 -21 17 -12 20 -11 26 6 4
10 12 19 18 19 6 0 9 -4 6 -9 -4 -5 4 -7 16 -3 16 4 19 2 13 -9 -5 -8 -4 -11
0 -6 11 10 14 47 4 47 -5 0 -5 7 -2 17 5 12 3 14 -7 8 -10 -6 -12 -4 -7 8 3 9
1 18 -6 21 -7 2 -2 5 11 5 27 1 28 9 5 27 -17 13 -17 13 0 14 10 0 17 6 16 13
-4 31 1 41 13 29 7 -7 20 -12 29 -12 9 0 19 -9 22 -20 3 -11 1 -20 -4 -20 -5
0 -9 -11 -9 -25 0 -18 5 -25 19 -25 11 0 21 5 23 11 5 14 77 -31 78 -49 0 -7
-4 -21 -9 -31 -15 -28 2 -46 30 -31 19 11 21 14 7 24 -21 16 -12 39 11 26 15
-8 17 -6 14 14 -4 19 2 24 36 36 39 13 52 32 31 45 -6 4 -8 10 -5 15 5 9 -32
60 -43 59 -4 -1 -10 0 -14 1 -5 1 -12 4 -18 5 -5 1 -11 4 -12 5 -9 7 -78 7
-78 -1 0 -5 -7 -9 -16 -9 -9 0 -12 -5 -8 -12 6 -10 4 -10 -8 0 -39 31 -118 37
-118 8 0 -8 -14 -13 -37 -14 -20 -1 -41 -6 -46 -11 -12 -12 -1 -44 13 -36 5 3
10 2 10 -3 0 -6 -7 -13 -16 -16 -9 -3 -14 -12 -11 -20 3 -8 -1 -13 -11 -12
-22 1 -41 18 -35 30 3 4 7 25 8 46 2 20 8 46 14 56 6 11 17 36 25 57 13 31 20
37 45 37 35 0 48 -15 31 -35 -24 -29 -4 -37 28 -10 34 29 40 57 20 100 -8 18
-17 24 -30 19 -11 -3 -20 0 -24 10 -3 9 -12 16 -20 16 -8 0 -14 9 -14 20 0 24
-18 26 -48 4z m88 -298 c0 -2 -7 -7 -16 -10 -8 -3 -12 -2 -9 4 6 10 25 14 25
6z"/>
<path d="M1460 1253 c0 -5 5 -15 10 -23 8 -12 10 -11 10 8 0 12 -4 22 -10 22
-5 0 -10 -3 -10 -7z"/>
<path d="M415 1230 c3 -5 8 -10 11 -10 2 0 4 5 4 10 0 6 -5 10 -11 10 -5 0 -7
-4 -4 -10z"/>
<path d="M424 1209 c-10 -11 -24 -17 -31 -15 -7 3 -13 -1 -13 -9 0 -8 -5 -15
-11 -15 -6 0 -9 -9 -6 -19 4 -15 -2 -20 -29 -26 -37 -6 -37 -20 0 -36 20 -8
20 -9 -4 -8 -51 2 -62 -1 -57 -15 3 -8 1 -17 -6 -20 -8 -3 -8 -5 1 -5 10 -1
10 -5 -2 -17 -19 -19 -21 -44 -3 -44 7 0 21 20 31 45 17 40 21 44 45 38 14 -3
33 -9 42 -14 9 -4 27 -6 40 -3 14 3 7 -3 -16 -15 -22 -10 -34 -20 -27 -20 18
-1 80 26 95 41 14 15 51 148 43 156 -4 3 -6 2 -6 -3 0 -4 -7 -1 -16 6 -25 21
-50 20 -70 -2z m70 -14 c3 -8 1 -15 -4 -15 -6 0 -10 7 -10 15 0 8 2 15 4 15 2
0 6 -7 10 -15z"/>
<path d="M1812 1170 c-27 -36 -29 -54 -2 -20 17 21 21 23 30 10 12 -19 35 1
27 24 -10 24 -31 19 -55 -14z"/>
<path d="M739 1163 c-11 -13 -11 -17 -1 -20 6 -3 10 -9 6 -14 -3 -5 -1 -9 5
-9 5 0 13 5 16 10 3 6 1 10 -5 10 -7 0 -9 8 -5 20 8 24 2 26 -16 3z"/>
<path d="M2650 1148 c0 -19 2 -20 10 -8 13 19 13 30 0 30 -5 0 -10 -10 -10
-22z"/>
<path d="M3690 1148 c0 -6 -14 -23 -32 -38 l-32 -27 31 0 c22 0 30 4 26 14 -4
9 0 11 11 7 12 -4 15 -2 10 9 -3 8 -1 18 5 22 16 9 13 25 -4 25 -8 0 -15 -5
-15 -12z"/>
<path d="M1395 1130 c20 -22 31 -20 22 5 -4 8 -14 15 -23 15 -16 0 -16 -2 1
-20z"/>
<path d="M1890 1136 c0 -10 6 -13 17 -9 14 5 15 1 10 -25 -9 -42 10 -51 21
-10 10 37 7 43 -25 53 -17 5 -23 2 -23 -9z"/>
<path d="M1329 1118 c-14 -20 -14 -23 3 -40 19 -19 24 -48 8 -48 -5 0 -10 8
-10 19 0 10 -6 23 -13 29 -16 13 -89 11 -99 -3 -5 -6 -8 -5 -8 3 0 12 -8 9
-69 -25 -2 -1 4 -14 13 -28 9 -14 12 -25 6 -25 -5 0 -15 9 -22 20 -19 30 -42
26 -34 -6 5 -17 3 -23 -4 -19 -5 3 -10 2 -10 -4 0 -6 8 -15 19 -20 25 -14 32
-36 21 -67 -6 -14 -7 -23 -2 -21 4 3 15 -4 26 -14 18 -17 18 -18 -2 -12 -27 7
-23 -27 4 -38 29 -12 37 -10 25 4 -21 26 2 26 26 1 30 -32 36 -28 23 16 -12
42 -7 47 19 21 12 -12 27 -21 35 -21 7 0 19 -7 26 -15 11 -13 18 -8 48 40 19
30 38 55 43 55 4 0 6 30 4 68 -2 37 -8 66 -13 65 -6 -1 -13 4 -16 12 -3 8 -1
15 5 15 5 0 3 14 -6 30 -18 35 -25 36 -46 8z m33 -143 c4 -17 1 -25 -8 -25 -9
0 -14 11 -14 31 0 35 15 31 22 -6z m-115 -41 c-3 -3 -12 -4 -19 -1 -8 3 -5 6
6 6 11 1 17 -2 13 -5z"/>
<path d="M3580 1105 c7 -8 20 -15 28 -15 13 0 12 3 -4 15 -25 19 -40 19 -24 0z"/>
<path d="M1565 1099 c-4 -6 -5 -12 -2 -15 2 -3 7 2 10 11 7 17 1 20 -8 4z"/>
<path d="M1715 1101 c-3 -6 -13 -10 -23 -10 -45 -1 -90 -16 -122 -41 -57 -45
-74 -46 -89 -5 -7 19 -16 35 -21 35 -5 0 -17 3 -27 6 -13 4 -12 0 7 -17 17
-14 21 -23 13 -26 -18 -7 -16 -34 7 -87 26 -61 18 -98 -30 -136 -29 -23 -39
-40 -49 -84 -11 -48 -24 -66 -51 -66 -4 0 -10 9 -13 20 -3 11 -11 20 -19 20
-7 0 -22 14 -32 31 -10 16 -30 35 -44 40 -31 12 -72 4 -72 -15 0 -22 37 -48
67 -46 43 3 45 2 32 -21 -10 -19 -9 -21 8 -17 23 6 89 -54 78 -71 -7 -13 5
-14 20 -3 6 4 18 25 29 47 10 22 21 34 23 28 3 -10 10 -10 25 -2 11 6 17 17
14 25 -3 8 -1 14 4 14 6 0 10 -15 10 -34 0 -26 -7 -40 -27 -56 l-26 -21 89 0
c273 0 322 4 331 27 8 21 25 17 18 -5 -9 -28 11 -36 90 -36 97 -1 290 -24 347
-42 50 -15 68 -12 68 13 0 21 38 17 45 -5 4 -14 22 -23 61 -32 49 -11 56 -11
68 6 11 16 18 17 57 7 29 -7 47 -8 55 -1 8 7 15 6 19 -1 5 -7 20 -9 41 -5 22
4 34 2 34 -5 0 -7 6 -8 19 -1 13 7 17 18 14 35 -5 26 -33 58 -33 38 0 -6 5
-14 10 -17 11 -7 4 -25 -10 -25 -5 0 -14 16 -21 35 -8 22 -18 34 -26 31 -8 -3
-13 2 -13 13 0 31 -72 50 -97 25 -10 -10 -20 -11 -32 -4 -15 7 -24 3 -45 -22
-14 -18 -26 -27 -26 -20 0 6 -6 10 -12 8 -39 -12 -69 -16 -64 -8 9 15 -43 21
-55 6 -8 -10 -14 -11 -24 -1 -7 7 -10 17 -7 22 3 6 -1 5 -9 -1 -8 -7 -23 -11
-34 -10 -29 2 -85 29 -85 41 0 5 -5 3 -10 -5 -8 -13 -10 -13 -10 2 0 12 -5 15
-17 11 -11 -4 -14 -3 -9 5 13 22 -13 12 -28 -10 -19 -26 -20 -20 -5 18 10 28
10 28 -11 9 -20 -18 -20 -18 -18 6 2 13 -3 24 -9 25 -7 1 -18 2 -24 3 -6 0 -8
8 -5 17 10 27 -21 -3 -55 -53 -21 -30 -37 -43 -53 -43 -30 0 -48 22 -43 52 2
12 2 17 0 10 -6 -16 -25 -11 -31 8 -3 7 0 10 6 6 12 -7 15 2 27 79 16 94 15
96 -18 110 -18 8 -26 14 -18 15 8 0 11 3 8 7 -4 3 -2 12 5 20 9 11 6 17 -11
29 -12 9 -20 22 -17 30 3 8 1 14 -5 14 -6 0 -9 7 -6 15 5 11 0 13 -23 8 -19
-3 -30 -1 -30 6 0 6 -7 11 -15 11 -8 0 -15 7 -15 15 0 17 -16 20 -25 6z m4
-30 c11 -7 5 -11 -22 -16 -48 -9 -61 -25 -41 -53 10 -15 26 -22 47 -22 18 -1
43 -9 55 -20 32 -27 19 -38 -93 -76 -93 -32 -103 -32 -145 -2 -31 22 -15 41
32 40 l33 -1 -30 26 -29 26 28 23 c15 13 33 24 41 24 8 0 12 6 9 14 -4 9 9 19
38 29 54 18 60 19 77 8z m68 -71 c14 -11 21 -20 15 -20 -6 0 -14 5 -17 10 -4
7 -26 9 -53 5 -47 -5 -47 -5 -17 10 39 19 42 18 72 -5z m-299 -18 c2 -7 -2
-10 -12 -6 -9 3 -16 11 -16 16 0 13 23 5 28 -10z m287 -101 c-3 -6 -10 -9 -14
-7 -4 3 -13 1 -21 -4 -9 -5 -20 -4 -28 2 -11 9 -7 14 20 23 34 12 55 5 43 -14z
m-287 -78 c-3 -31 -13 -44 -45 -61 -28 -16 -33 -15 -33 3 0 8 5 15 12 15 19 0
48 31 48 52 0 10 5 18 11 18 6 0 9 -12 7 -27z m353 -136 c-10 -9 -11 -8 -5 6
3 10 9 15 12 12 3 -3 0 -11 -7 -18z m829 -81 c0 -3 -4 -8 -10 -11 -5 -3 -10
-1 -10 4 0 6 5 11 10 11 6 0 10 -2 10 -4z"/>
<path d="M1590 1000 c0 -5 5 -10 10 -10 6 0 10 5 10 10 0 6 -4 10 -10 10 -5 0
-10 -4 -10 -10z"/>
<path d="M2845 1080 c3 -5 8 -10 11 -10 2 0 4 5 4 10 0 6 -5 10 -11 10 -5 0
-7 -4 -4 -10z"/>
<path d="M3196 1054 c-9 -22 -8 -24 9 -18 8 4 15 12 15 20 0 19 -16 18 -24 -2z"/>
<path d="M3527 1063 c-13 -13 -7 -21 13 -16 11 3 17 9 14 14 -6 11 -18 12 -27
2z"/>
<path d="M690 1042 c0 -28 10 -52 22 -52 14 0 5 63 -9 68 -8 2 -13 -5 -13 -16z"/>
<path d="M2440 1056 c0 -2 7 -7 16 -10 8 -3 12 -2 9 4 -6 10 -25 14 -25 6z"/>
<path d="M735 1030 c-3 -5 -2 -10 4 -10 5 0 13 5 16 10 3 6 2 10 -4 10 -5 0
-13 -4 -16 -10z"/>
<path d="M2826 1028 c-3 -7 -4 -20 -4 -28 0 -19 -11 -81 -17 -90 -2 -4 25 -33
60 -64 47 -41 65 -64 65 -82 0 -28 30 -34 30 -6 1 12 5 9 16 -10 8 -15 23 -32
34 -38 24 -13 26 -7 4 15 -9 9 -18 30 -20 46 -2 16 -9 39 -15 50 -6 11 -8 27
-5 34 2 7 -2 19 -10 26 -9 7 -12 20 -9 33 5 16 4 18 -4 6 -8 -12 -12 -9 -23
15 -7 17 -19 30 -25 31 -7 1 -17 2 -22 3 -5 0 -15 17 -22 36 -13 36 -27 45
-33 23z"/>
<path d="M3451 1031 c-7 -5 -9 -11 -4 -14 5 -3 15 -2 22 2 7 5 9 11 4 14 -5 3
-15 2 -22 -2z"/>
<path d="M3400 1009 c0 -5 5 -7 10 -4 6 3 10 8 10 11 0 2 -4 4 -10 4 -5 0 -10
-5 -10 -11z"/>
<path d="M2014 1001 c3 -4 -4 -17 -15 -27 -11 -10 -17 -24 -15 -31 3 -7 1 -25
-4 -39 -7 -17 -7 -23 0 -19 6 3 10 12 10 20 0 8 7 18 15 23 18 9 30 82 14 82
-5 0 -8 -4 -5 -9z"/>
<path d="M3550 990 l-25 -8 25 -1 c14 0 32 4 40 9 13 9 13 10 0 9 -8 -1 -26
-5 -40 -9z"/>
<path d="M360 980 c-9 -6 -10 -10 -3 -10 6 0 15 5 18 10 8 12 4 12 -15 0z"/>
<path d="M1040 971 c-33 -8 -110 -70 -110 -89 0 -9 9 -6 30 12 17 14 48 30 69
36 40 10 66 32 54 43 -3 4 -9 6 -12 6 -3 -1 -17 -4 -31 -8z"/>
<path d="M3318 972 c-10 -2 -18 -8 -18 -14 0 -7 -5 -6 -14 1 -11 9 -16 9 -22
0 -4 -6 0 -16 10 -21 21 -12 23 -90 2 -82 -9 3 -15 -4 -18 -20 -4 -18 -1 -26
9 -26 11 0 14 -16 12 -80 -3 -85 2 -100 26 -80 25 20 49 71 33 68 -8 -2 -14 9
-16 25 -2 15 1 27 7 27 6 0 11 8 11 18 0 13 -2 14 -9 4 -6 -11 -9 -9 -13 5 -7
25 17 60 28 42 5 -9 12 -2 20 22 16 43 17 79 3 79 -5 0 -7 5 -4 10 3 6 1 10
-4 10 -6 0 -11 -6 -12 -12 -1 -7 -4 -4 -7 7 -4 13 -14 19 -24 17z"/>
<path d="M249 958 c0 -7 -2 -25 -4 -41 -2 -15 0 -25 6 -22 5 3 6 -1 3 -9 -3
-9 -2 -16 4 -16 10 0 20 53 14 83 -4 19 -22 23 -23 5z"/>
<path d="M506 923 c-10 -10 -7 -18 16 -43 15 -16 18 -25 10 -28 -7 -2 -10 -13
-6 -26 3 -14 -1 -29 -10 -38 -14 -14 -13 -17 12 -27 19 -8 36 -9 53 -2 20 8
21 10 7 16 -14 5 -15 12 -7 33 7 18 6 27 -3 33 -9 6 -8 9 4 14 9 4 24 17 32
30 15 24 15 24 -23 23 -21 0 -47 5 -58 10 -11 6 -23 8 -27 5z"/>
<path d="M1440 905 c0 -15 4 -24 10 -20 6 3 10 12 10 20 0 8 -4 17 -10 20 -6
4 -10 -5 -10 -20z"/>
<path d="M310 909 c0 -5 5 -7 10 -4 6 3 10 8 10 11 0 2 -4 4 -10 4 -5 0 -10
-5 -10 -11z"/>
<path d="M440 910 c-9 -6 -7 -10 9 -15 14 -4 20 -12 17 -21 -6 -16 3 -18 24
-4 11 7 11 10 2 10 -7 0 -11 4 -8 8 7 12 -29 31 -44 22z"/>
<path d="M1087 913 c-13 -12 -7 -33 8 -33 8 0 15 9 15 20 0 20 -11 26 -23 13z"/>
<path d="M1400 870 c0 -25 4 -39 10 -35 6 3 10 19 10 35 0 16 -4 32 -10 35 -6
4 -10 -10 -10 -35z"/>
<path d="M311 864 c0 -11 3 -14 6 -6 3 7 2 16 -1 19 -3 4 -6 -2 -5 -13z"/>
<path d="M992 867 c-6 -7 -8 -18 -4 -23 10 -15 52 -28 52 -16 0 5 8 9 17 8 10
0 19 7 21 18 4 17 3 18 -19 2 -31 -21 -42 -20 -34 4 7 23 -16 28 -33 7z"/>
<path d="M3056 855 c4 -9 0 -15 -10 -15 -12 0 -14 -7 -9 -32 3 -18 10 -41 15
-51 8 -16 11 -15 42 8 29 22 33 30 26 53 -4 15 -12 26 -18 25 -5 -1 -16 4 -22
12 -16 19 -31 19 -24 0z"/>
<path d="M245 841 c-3 -2 -5 -8 -5 -12 0 -9 39 1 45 12 6 8 -32 8 -40 0z"/>
<path d="M327 803 c5 -28 3 -32 -16 -30 -12 1 -20 6 -17 13 3 7 -2 18 -10 25
-19 16 -45 -8 -49 -43 -1 -13 -3 -29 -4 -36 0 -7 -5 -10 -11 -7 -6 4 -10 -8
-10 -28 0 -38 16 -53 80 -76 19 -7 49 -20 65 -29 50 -28 388 -20 418 9 18 19
3 57 -16 40 -16 -13 -67 -2 -67 15 0 10 -6 11 -26 4 -36 -14 -52 -12 -31 4 16
13 16 14 -8 20 -14 4 -34 15 -45 26 -26 26 -47 25 -56 -2 -4 -13 -12 -26 -18
-30 -16 -11 -66 -10 -66 2 0 6 -8 10 -17 10 -13 0 -14 3 -5 12 7 7 12 17 12
22 -1 6 -9 1 -19 -10 -10 -13 -28 -21 -42 -20 -21 1 -24 -3 -23 -31 1 -23 -2
-30 -13 -26 -10 4 -12 13 -8 27 4 11 7 35 9 53 1 27 -1 30 -13 20 -10 -8 -9
-2 4 20 15 26 16 36 7 55 -10 21 -10 20 -5 -9z m283 -137 c0 -2 -7 -6 -15 -10
-8 -3 -15 -1 -15 4 0 6 7 10 15 10 8 0 15 -2 15 -4z"/>
<path d="M211 764 c0 -11 3 -14 6 -6 3 7 2 16 -1 19 -3 4 -6 -2 -5 -13z"/>
<path d="M1072 746 c-20 -19 -34 -37 -31 -41 13 -12 57 7 68 31 6 13 15 24 21
24 5 0 10 5 10 10 0 20 -31 9 -68 -24z"/>
<path d="M374 739 c-3 -6 -1 -16 4 -21 8 -8 11 -5 9 11 -1 24 -3 25 -13 10z"/>
<path d="M3197 739 c7 -7 15 -10 18 -7 3 3 -2 9 -12 12 -14 6 -15 5 -6 -5z"/>
<path d="M2804 715 c-4 -8 -3 -27 1 -43 7 -27 7 -27 21 13 7 22 14 41 14 43 0
10 -32 -1 -36 -13z"/>
<path d="M1126 711 c-6 -10 20 -35 47 -44 9 -4 17 -2 17 3 0 6 9 10 20 10 11
0 20 5 20 10 0 6 -14 10 -31 10 -17 0 -39 5 -49 10 -10 6 -21 6 -24 1z"/>
<path d="M3183 704 c-9 -9 -6 -13 13 -18 13 -4 24 -14 24 -23 0 -9 3 -14 6
-10 3 3 3 19 0 35 -7 30 -24 37 -43 16z"/>
<path d="M2927 683 c-9 -2 -15 -9 -12 -14 4 -5 -3 -9 -14 -9 -11 0 -23 -5 -26
-11 -4 -6 -14 -8 -22 -4 -14 5 -14 3 -2 -11 23 -28 55 -35 86 -19 20 11 23 15
10 15 -14 0 -17 5 -11 23 4 12 12 25 18 29 12 8 2 9 -27 1z"/>
<path d="M1230 660 c0 -5 7 -10 15 -10 8 0 18 0 22 -1 4 0 9 4 11 10 2 6 -8
11 -22 11 -14 0 -26 -4 -26 -10z"/>
<path d="M2993 660 c-25 -10 -31 -22 -10 -17 6 1 11 -3 10 -10 -3 -17 52 -26
76 -13 28 14 26 22 -6 38 -31 14 -40 14 -70 2z m57 -24 c0 -3 -4 -8 -10 -11
-5 -3 -10 -1 -10 4 0 6 5 11 10 11 6 0 10 -2 10 -4z"/>
<path d="M1383 95 c0 -27 2 -38 4 -22 2 15 8 27 13 27 5 0 11 -12 13 -27 4
-26 4 -26 6 5 1 22 -4 32 -13 32 -8 0 -17 8 -19 18 -3 9 -5 -5 -4 -33z"/>
<path d="M1882 95 c0 -27 2 -43 5 -35 3 8 13 24 22 35 15 18 15 19 -1 7 -14
-12 -17 -10 -21 15 -2 16 -4 6 -5 -22z"/>
<path d="M1499 119 c-8 -20 4 -62 19 -65 7 -1 8 0 2 3 -15 7 -12 43 4 43 8 0
16 -10 18 -22 2 -12 9 -23 16 -24 7 -1 8 0 2 3 -12 6 -13 40 -1 45 5 2 3 9 -5
16 -8 7 -14 8 -14 2 0 -14 -27 -13 -32 2 -3 8 -6 7 -9 -3z"/>
<path d="M1729 118 c-2 -25 3 -53 11 -62 5 -5 6 1 3 14 -3 12 -1 25 4 29 7 4
6 11 -3 19 -11 10 -14 10 -15 0z"/>
<path d="M2272 105 c-22 -28 -23 -30 -5 -34 10 -2 21 -8 24 -13 10 -15 16 14
10 47 l-6 29 -23 -29z m14 -22 c-10 -10 -19 5 -10 18 6 11 8 11 12 0 2 -7 1
-15 -2 -18z"/>
<path d="M2325 120 c-3 -5 0 -7 8 -4 24 9 28 -12 7 -31 -27 -25 -25 -35 8 -34
21 0 23 2 9 7 -15 7 -16 10 -3 27 7 10 12 25 9 32 -6 15 -29 17 -38 3z"/>
<path d="M2390 106 c-7 -14 -10 -32 -7 -40 7 -18 33 -21 42 -6 9 14 45 12 45
-2 0 -10 2 -10 8 0 5 7 6 27 4 44 l-5 32 -22 -26 c-18 -21 -25 -23 -38 -13
-12 9 -14 14 -5 23 7 7 8 12 2 12 -6 0 -16 -11 -24 -24z m76 -23 c-10 -10 -19
5 -10 18 6 11 8 11 12 0 2 -7 1 -15 -2 -18z m-54 -8 c0 -5 -5 -11 -11 -13 -6
-2 -11 4 -11 13 0 9 5 15 11 13 6 -2 11 -8 11 -13z"/>
<path d="M2505 120 c-3 -5 0 -7 8 -4 24 9 28 -12 7 -31 -27 -25 -25 -35 8 -34
21 0 23 2 9 7 -15 7 -16 10 -3 27 7 10 12 25 9 32 -6 15 -29 17 -38 3z"/>
<path d="M2564 115 c-4 -8 -1 -22 6 -30 6 -8 9 -19 5 -25 -3 -5 -4 -10 -1 -10
10 0 33 55 29 68 -6 17 -32 15 -39 -3z m28 -10 c0 -5 -5 -11 -11 -13 -6 -2
-11 4 -11 13 0 9 5 15 11 13 6 -2 11 -8 11 -13z"/>
<path d="M2627 123 c-12 -12 -7 -33 7 -33 26 0 28 -20 4 -29 -14 -6 -17 -10
-7 -10 8 -1 20 4 26 10 14 14 6 39 -13 39 -20 0 -17 18 4 23 14 4 14 5 1 6 -9
0 -19 -2 -22 -6z"/>
<path d="M2700 125 c-1 -5 -1 -21 0 -34 1 -13 -4 -28 -12 -32 -9 -6 -3 -9 17
-9 17 0 25 4 18 8 -6 4 -13 23 -16 42 -2 19 -5 31 -7 25z"/>
<path d="M2752 105 c-22 -28 -23 -30 -5 -34 10 -2 21 -8 24 -13 10 -15 16 14
10 47 l-6 29 -23 -29z m14 -22 c-10 -10 -19 5 -10 18 6 11 8 11 12 0 2 -7 1
-15 -2 -18z"/>
<path d="M1330 93 c0 -10 4 -14 8 -8 4 6 11 13 16 18 5 4 2 7 -7 7 -10 0 -17
-8 -17 -17z"/>
<path d="M1441 83 c-1 -27 3 -33 19 -33 16 0 20 6 19 33 -2 30 -2 30 -6 5 -6
-36 -20 -36 -26 0 -4 25 -4 25 -6 -5z"/>
<path d="M1587 104 c-13 -13 -7 -24 14 -24 11 0 19 5 17 12 -5 14 -22 21 -31
12z"/>
<path d="M1641 78 c2 -28 2 -29 6 -8 3 14 10 28 17 32 7 5 5 8 -6 8 -14 0 -18
-8 -17 -32z"/>
<path d="M1680 93 c0 -10 4 -14 8 -8 4 6 11 13 16 18 5 4 2 7 -7 7 -10 0 -17
-8 -17 -17z"/>
<path d="M1777 103 c-11 -10 -8 -41 4 -49 6 -3 18 1 27 9 13 13 13 19 2 31
-14 17 -23 20 -33 9z m28 -23 c0 -7 -6 -15 -12 -17 -8 -3 -13 4 -13 17 0 13 5
20 13 18 6 -3 12 -11 12 -18z"/>
<path d="M1834 95 c-8 -20 2 -45 18 -44 10 0 10 2 1 6 -7 2 -13 13 -13 23 0
10 6 21 13 23 9 4 9 6 -1 6 -7 1 -15 -6 -18 -14z"/>
<path d="M1974 95 c-8 -20 2 -45 18 -44 10 0 10 2 1 6 -7 2 -13 13 -13 23 0
10 6 21 13 23 9 4 9 6 -1 6 -7 1 -15 -6 -18 -14z"/>
<path d="M2024 95 c-8 -21 2 -45 20 -45 19 0 29 29 15 46 -15 18 -28 18 -35
-1z m31 -15 c0 -7 -6 -15 -12 -17 -8 -3 -13 4 -13 17 0 13 5 20 13 18 6 -3 12
-11 12 -18z"/>
<path d="M2081 77 c2 -31 2 -31 6 -4 2 15 8 27 13 27 5 0 11 -12 13 -27 l4
-28 2 28 c0 15 5 27 10 27 5 0 12 -12 14 -27 4 -27 4 -27 6 4 1 29 -1 31 -34
31 -33 0 -35 -2 -34 -31z"/>
<path d="M1342 65 c-11 -12 -10 -15 3 -15 8 0 15 7 15 15 0 18 -2 18 -18 0z"/>
<path d="M1692 65 c-11 -12 -10 -15 3 -15 8 0 15 7 15 15 0 18 -2 18 -18 0z"/>
<path d="M1900 71 c0 -5 5 -13 10 -16 6 -3 10 -2 10 4 0 5 -4 13 -10 16 -5 3
-10 2 -10 -4z"/>
<path d="M1588 58 c5 -5 16 -8 23 -6 8 3 3 7 -10 11 -17 4 -21 3 -13 -5z"/>
</g>
</svg>
